<?xml version="1.0" encoding="UTF-8" standalone="no"?>
<!DOCTYPE svg PUBLIC "-//W3C//DTD SVG 1.1//EN"
 "http://www.w3.org/Graphics/SVG/1.1/DTD/svg11.dtd">
<!-- Generated by graphviz version 14.0.2 (20251019.1705)
 -->
<!-- Title: VotingOverview Pages: 1 -->
<svg width="1081pt" height="475pt"
 viewBox="0.00 0.00 1081.00 475.00" xmlns="http://www.w3.org/2000/svg" xmlns:xlink="http://www.w3.org/1999/xlink">
<g id="graph0" class="graph" transform="scale(1 1) rotate(0) translate(4 470.5)">
<title>VotingOverview</title>
<polygon fill="white" stroke="none" points="-4,4 -4,-470.5 1077.25,-470.5 1077.25,4 -4,4"/>
<!-- Contract -->
<g id="node1" class="node">
<title>Contract</title>
<path fill="#f3f4f6" stroke="#c9ced6" stroke-width="2" d="M114.25,-218.88C114.25,-218.88 12,-218.88 12,-218.88 6,-218.88 0,-212.88 0,-206.88 0,-206.88 0,-194.88 0,-194.88 0,-188.88 6,-182.88 12,-182.88 12,-182.88 114.25,-182.88 114.25,-182.88 120.25,-182.88 126.25,-188.88 126.25,-194.88 126.25,-194.88 126.25,-206.88 126.25,-206.88 126.25,-212.88 120.25,-218.88 114.25,-218.88"/>
<text xml:space="preserve" text-anchor="middle" x="63.12" y="-202.22" font-family="Inter" font-size="12.00">contract Voting</text>
<text xml:space="preserve" text-anchor="middle" x="63.12" y="-189.47" font-family="Inter" font-size="12.00">(Simple Voting MVP)</text>
</g>
<!-- State -->
<g id="node2" class="node">
<title>State</title>
<path fill="#e8f0fe" stroke="#c9ced6" d="M866.25,-330.12C866.25,-330.12 668,-330.12 668,-330.12 662,-330.12 656,-324.12 656,-318.12 656,-318.12 656,-257.62 656,-257.62 656,-251.62 662,-245.62 668,-245.62 668,-245.62 866.25,-245.62 866.25,-245.62 872.25,-245.62 878.25,-251.62 878.25,-257.62 878.25,-257.62 878.25,-318.12 878.25,-318.12 878.25,-324.12 872.25,-330.12 866.25,-330.12"/>
<text xml:space="preserve" text-anchor="middle" x="767.12" y="-314.73" font-family="Inter" font-size="12.00">State</text>
<text xml:space="preserve" text-anchor="middle" x="767.12" y="-301.98" font-family="Inter" font-size="12.00">──────────────</text>
<text xml:space="preserve" text-anchor="middle" x="767.12" y="-289.23" font-family="Inter" font-size="12.00">admin, title, startTs, endTs</text>
<text xml:space="preserve" text-anchor="middle" x="767.12" y="-276.48" font-family="Inter" font-size="12.00">_candidates[], _tally[]</text>
<text xml:space="preserve" text-anchor="middle" x="767.12" y="-263.73" font-family="Inter" font-size="12.00">registered[address], hasVoted[address]</text>
<text xml:space="preserve" text-anchor="middle" x="767.12" y="-250.97" font-family="Inter" font-size="12.00">_receiptUsed[bytes32]</text>
</g>
<!-- Contract&#45;&gt;State -->
<g id="edge1" class="edge">
<title>Contract&#45;&gt;State</title>
<path fill="none" stroke="#111827" d="M126.7,-219.15C138.45,-222.28 150.69,-225.34 162.25,-227.88 211.1,-238.58 442.65,-276.36 491.75,-280.88 541.61,-285.46 596.76,-287.46 644.47,-288.22"/>
<polygon fill="#111827" stroke="#111827" points="644.23,-291.72 654.27,-288.36 644.33,-284.72 644.23,-291.72"/>
<text xml:space="preserve" text-anchor="middle" x="363.75" y="-279.33" font-family="Times,serif" font-size="14.00">stores</text>
</g>
<!-- Events -->
<g id="node3" class="node">
<title>Events</title>
<path fill="#eaf4ec" stroke="#c9ced6" d="M847.12,-106.75C847.12,-106.75 687.12,-106.75 687.12,-106.75 681.12,-106.75 675.12,-100.75 675.12,-94.75 675.12,-94.75 675.12,-47 675.12,-47 675.12,-41 681.12,-35 687.12,-35 687.12,-35 847.12,-35 847.12,-35 853.12,-35 859.12,-41 859.12,-47 859.12,-47 859.12,-94.75 859.12,-94.75 859.12,-100.75 853.12,-106.75 847.12,-106.75"/>
<text xml:space="preserve" text-anchor="middle" x="767.12" y="-91.35" font-family="Inter" font-size="12.00">Events</text>
<text xml:space="preserve" text-anchor="middle" x="767.12" y="-78.6" font-family="Inter" font-size="12.00">──────────────</text>
<text xml:space="preserve" text-anchor="middle" x="767.12" y="-65.85" font-family="Inter" font-size="12.00">ElectionConfigured</text>
<text xml:space="preserve" text-anchor="middle" x="767.12" y="-53.1" font-family="Inter" font-size="12.00">VoterRegistered</text>
<text xml:space="preserve" text-anchor="middle" x="767.12" y="-40.35" font-family="Inter" font-size="12.00">VoteCast</text>
</g>
<!-- Contract&#45;&gt;Events -->
<g id="edge2" class="edge">
<title>Contract&#45;&gt;Events</title>
<path fill="none" stroke="#2563eb" d="M77.98,-182.59C108.17,-144.47 184.21,-57.41 271.75,-25.38 401,21.93 561.35,-7.48 663.72,-36.31"/>
<polygon fill="#2563eb" stroke="#2563eb" points="662.65,-39.64 673.23,-39.04 664.58,-32.91 662.65,-39.64"/>
<text xml:space="preserve" text-anchor="middle" x="363.75" y="-28.57" font-family="Times,serif" font-size="14.00">emits</text>
</g>
<!-- Admin -->
<g id="node4" class="node">
<title>Admin</title>
<path fill="#fde2e4" stroke="#c9ced6" d="M443.75,-134.75C443.75,-134.75 283.75,-134.75 283.75,-134.75 277.75,-134.75 271.75,-128.75 271.75,-122.75 271.75,-122.75 271.75,-75 271.75,-75 271.75,-69 277.75,-63 283.75,-63 283.75,-63 443.75,-63 443.75,-63 449.75,-63 455.75,-69 455.75,-75 455.75,-75 455.75,-122.75 455.75,-122.75 455.75,-128.75 449.75,-134.75 443.75,-134.75"/>
<text xml:space="preserve" text-anchor="middle" x="363.75" y="-119.35" font-family="Inter" font-size="12.00">Admin Actions</text>
<text xml:space="preserve" text-anchor="middle" x="363.75" y="-106.6" font-family="Inter" font-size="12.00">──────────────</text>
<text xml:space="preserve" text-anchor="middle" x="363.75" y="-93.85" font-family="Inter" font-size="12.00">registerVoters()</text>
<text xml:space="preserve" text-anchor="middle" x="363.75" y="-81.1" font-family="Inter" font-size="12.00">updateWindow()</text>
<text xml:space="preserve" text-anchor="middle" x="363.75" y="-68.35" font-family="Inter" font-size="12.00">closeEarly()</text>
</g>
<!-- Contract&#45;&gt;Admin -->
<g id="edge3" class="edge">
<title>Contract&#45;&gt;Admin</title>
<path fill="none" stroke="#f59e0b" d="M118.2,-182.4C157.82,-168.87 212.77,-150.1 260.56,-133.78"/>
<polygon fill="#f59e0b" stroke="#f59e0b" points="261.5,-137.16 269.84,-130.61 259.24,-130.53 261.5,-137.16"/>
<text xml:space="preserve" text-anchor="middle" x="199" y="-168.17" font-family="Times,serif" font-size="14.00">controls</text>
</g>
<!-- Voting -->
<g id="node5" class="node">
<title>Voting</title>
<path fill="#fcefe3" stroke="#c9ced6" d="M443.75,-224C443.75,-224 283.75,-224 283.75,-224 277.75,-224 271.75,-218 271.75,-212 271.75,-212 271.75,-189.75 271.75,-189.75 271.75,-183.75 277.75,-177.75 283.75,-177.75 283.75,-177.75 443.75,-177.75 443.75,-177.75 449.75,-177.75 455.75,-183.75 455.75,-189.75 455.75,-189.75 455.75,-212 455.75,-212 455.75,-218 449.75,-224 443.75,-224"/>
<text xml:space="preserve" text-anchor="middle" x="363.75" y="-208.6" font-family="Inter" font-size="12.00">Voting</text>
<text xml:space="preserve" text-anchor="middle" x="363.75" y="-195.85" font-family="Inter" font-size="12.00">──────────────</text>
<text xml:space="preserve" text-anchor="middle" x="363.75" y="-183.1" font-family="Inter" font-size="12.00">vote(optionIndex, receipt)</text>
</g>
<!-- Contract&#45;&gt;Voting -->
<g id="edge4" class="edge">
<title>Contract&#45;&gt;Voting</title>
<path fill="none" stroke="#111827" d="M126.73,-200.88C165.27,-200.88 215.62,-200.88 259.91,-200.88"/>
<polygon fill="#111827" stroke="#111827" points="259.81,-204.38 269.81,-200.88 259.81,-197.38 259.81,-204.38"/>
<text xml:space="preserve" text-anchor="middle" x="199" y="-204.07" font-family="Times,serif" font-size="14.00">handles votes</text>
</g>
<!-- Views -->
<g id="node6" class="node">
<title>Views</title>
<path fill="#e8eaf6" stroke="#c9ced6" d="M443.75,-466.5C443.75,-466.5 283.75,-466.5 283.75,-466.5 277.75,-466.5 271.75,-460.5 271.75,-454.5 271.75,-454.5 271.75,-381.25 271.75,-381.25 271.75,-375.25 277.75,-369.25 283.75,-369.25 283.75,-369.25 443.75,-369.25 443.75,-369.25 449.75,-369.25 455.75,-375.25 455.75,-381.25 455.75,-381.25 455.75,-454.5 455.75,-454.5 455.75,-460.5 449.75,-466.5 443.75,-466.5"/>
<text xml:space="preserve" text-anchor="middle" x="363.75" y="-451.1" font-family="Inter" font-size="12.00">View Functions</text>
<text xml:space="preserve" text-anchor="middle" x="363.75" y="-438.35" font-family="Inter" font-size="12.00">──────────────</text>
<text xml:space="preserve" text-anchor="middle" x="363.75" y="-425.6" font-family="Inter" font-size="12.00">candidates()</text>
<text xml:space="preserve" text-anchor="middle" x="363.75" y="-412.85" font-family="Inter" font-size="12.00">tally()</text>
<text xml:space="preserve" text-anchor="middle" x="363.75" y="-400.1" font-family="Inter" font-size="12.00">electionInfo()</text>
<text xml:space="preserve" text-anchor="middle" x="363.75" y="-387.35" font-family="Inter" font-size="12.00">status()</text>
<text xml:space="preserve" text-anchor="middle" x="363.75" y="-374.6" font-family="Inter" font-size="12.00">hasReceipt()</text>
</g>
<!-- Contract&#45;&gt;Views -->
<g id="edge5" class="edge">
<title>Contract&#45;&gt;Views</title>
<path fill="none" stroke="#6b7280" d="M72.31,-219.08C86.53,-248.78 118.52,-307.75 162.25,-341.88 190.98,-364.29 227.07,-380.68 260.67,-392.37"/>
<polygon fill="#6b7280" stroke="#6b7280" points="259.45,-395.65 270.05,-395.52 261.68,-389.02 259.45,-395.65"/>
<text xml:space="preserve" text-anchor="middle" x="199" y="-385.14" font-family="Times,serif" font-size="14.00">exposes</text>
</g>
<!-- Admin&#45;&gt;State -->
<g id="edge6" class="edge">
<title>Admin&#45;&gt;State</title>
<path fill="none" stroke="#111827" d="M447.17,-135.24C461.96,-141.57 477.28,-148.01 491.75,-153.88 548.23,-176.77 565.01,-176.12 620,-202.38 642.89,-213.3 666.95,-226.58 688.79,-239.38"/>
<polygon fill="#111827" stroke="#111827" points="686.96,-242.36 697.35,-244.44 690.53,-236.34 686.96,-242.36"/>
<text xml:space="preserve" text-anchor="middle" x="555.88" y="-205.57" font-family="Times,serif" font-size="14.00">modifies</text>
</g>
<!-- Admin&#45;&gt;Events -->
<g id="edge9" class="edge">
<title>Admin&#45;&gt;Events</title>
<path fill="none" stroke="#2563eb" stroke-dasharray="1,5" d="M456.14,-72.6C468.03,-70.03 480.12,-67.84 491.75,-66.38 548.23,-59.26 611.75,-59.77 663.45,-62.33"/>
<polygon fill="#2563eb" stroke="#2563eb" points="662.94,-65.81 673.12,-62.85 663.32,-58.82 662.94,-65.81"/>
<text xml:space="preserve" text-anchor="middle" x="555.88" y="-69.58" font-family="Times,serif" font-size="14.00">emit config/registration</text>
</g>
<!-- Voting&#45;&gt;State -->
<g id="edge7" class="edge">
<title>Voting&#45;&gt;State</title>
<path fill="none" stroke="#111827" d="M456.08,-220.67C511.83,-232.76 583.79,-248.35 644.35,-261.48"/>
<polygon fill="#111827" stroke="#111827" points="643.52,-264.88 654.04,-263.58 645.01,-258.04 643.52,-264.88"/>
<text xml:space="preserve" text-anchor="middle" x="555.88" y="-257.93" font-family="Times,serif" font-size="14.00">reads/writes</text>
</g>
<!-- Voting&#45;&gt;Events -->
<g id="edge10" class="edge">
<title>Voting&#45;&gt;Events</title>
<path fill="none" stroke="#2563eb" stroke-dasharray="1,5" d="M415.47,-177.34C428.77,-170.75 442.96,-163.34 455.75,-155.88 472.46,-146.12 473.98,-139.04 491.75,-131.38 546.21,-107.88 610.84,-93.05 663.69,-83.96"/>
<polygon fill="#2563eb" stroke="#2563eb" points="664,-87.46 673.29,-82.36 662.85,-80.56 664,-87.46"/>
<text xml:space="preserve" text-anchor="middle" x="555.88" y="-134.57" font-family="Times,serif" font-size="14.00">emit vote</text>
</g>
<!-- Views&#45;&gt;State -->
<g id="edge8" class="edge">
<title>Views&#45;&gt;State</title>
<path fill="none" stroke="#6b7280" stroke-dasharray="5,2" d="M456.16,-392.21C505.01,-378.1 566.05,-359.86 620,-341.88 628.21,-339.14 636.65,-336.24 645.13,-333.27"/>
<polygon fill="#6b7280" stroke="#6b7280" points="646.2,-336.61 654.46,-329.98 643.87,-330.01 646.2,-336.61"/>
<text xml:space="preserve" text-anchor="middle" x="555.88" y="-384.09" font-family="Times,serif" font-size="14.00">reads</text>
</g>
<!-- Legend -->
<g id="node7" class="node">
<title>Legend</title>
<path fill="#c9ced6" stroke="none" d="M1061.25,-141.75C1061.25,-141.75 926.25,-141.75 926.25,-141.75 920.25,-141.75 914.25,-135.75 914.25,-129.75 914.25,-129.75 914.25,-12 914.25,-12 914.25,-6 920.25,0 926.25,0 926.25,0 1061.25,0 1061.25,0 1067.25,0 1073.25,-6 1073.25,-12 1073.25,-12 1073.25,-129.75 1073.25,-129.75 1073.25,-135.75 1067.25,-141.75 1061.25,-141.75"/>
<polygon fill="#f3f4f6" stroke="none" points="922.25,-111 922.25,-137.75 1065.25,-137.75 1065.25,-111 922.25,-111"/>
<polygon fill="none" stroke="#c9ced6" points="922.25,-111 922.25,-137.75 1065.25,-137.75 1065.25,-111 922.25,-111"/>
<text xml:space="preserve" text-anchor="start" x="972" y="-120.35" font-family="Inter" font-weight="bold" font-size="12.00">Legend</text>
<polygon fill="none" stroke="#c9ced6" points="922.25,-84.25 922.25,-111 1065.25,-111 1065.25,-84.25 922.25,-84.25"/>
<text xml:space="preserve" text-anchor="start" x="929.25" y="-93.6" font-family="Inter" font-size="12.00" fill="#111827">solid</text>
<text xml:space="preserve" text-anchor="start" x="954.75" y="-93.6" font-family="Inter" font-size="12.00"> = state interaction</text>
<polygon fill="none" stroke="#c9ced6" points="922.25,-57.5 922.25,-84.25 1065.25,-84.25 1065.25,-57.5 922.25,-57.5"/>
<text xml:space="preserve" text-anchor="start" x="929.25" y="-66.85" font-family="Inter" font-size="12.00" fill="#6b7280">grey dashed</text>
<text xml:space="preserve" text-anchor="start" x="995.25" y="-66.85" font-family="Inter" font-size="12.00"> = read&#45;only</text>
<polygon fill="none" stroke="#c9ced6" points="922.25,-30.75 922.25,-57.5 1065.25,-57.5 1065.25,-30.75 922.25,-30.75"/>
<text xml:space="preserve" text-anchor="start" x="929.25" y="-40.1" font-family="Inter" font-size="12.00" fill="#2563eb">blue dotted</text>
<text xml:space="preserve" text-anchor="start" x="988.5" y="-40.1" font-family="Inter" font-size="12.00"> = emit event</text>
<polygon fill="none" stroke="#c9ced6" points="922.25,-4 922.25,-30.75 1065.25,-30.75 1065.25,-4 922.25,-4"/>
<text xml:space="preserve" text-anchor="start" x="929.25" y="-13.35" font-family="Inter" font-size="12.00" fill="#f59e0b">orange</text>
<text xml:space="preserve" text-anchor="start" x="966.75" y="-13.35" font-family="Inter" font-size="12.00"> = admin control</text>
</g>
</g>
</svg>
